<svg width="24" height="25" viewBox="0 0 24 25" fill="none" xmlns="http://www.w3.org/2000/svg">
  <path d="M17 2.01562H7C4.23858 2.01562 2 4.2542 2 7.01562V17.0156C2 19.777 4.23858 22.0156 7 22.0156H17C19.7614 22.0156 22 19.777 22 17.0156V7.01562C22 4.2542 19.7614 2.01562 17 2.01562Z" stroke="#02897A" stroke-width="2" stroke-linecap="round" stroke-linejoin="round" />
  <path d="M16.0002 11.3859C16.1236 12.2182 15.9815 13.0681 15.594 13.8149C15.2065 14.5617 14.5933 15.1673 13.8418 15.5456C13.0903 15.9239 12.2386 16.0555 11.408 15.9219C10.5773 15.7882 9.80996 15.396 9.21503 14.8011C8.62011 14.2062 8.22793 13.4388 8.09426 12.6081C7.9606 11.7775 8.09226 10.9258 8.47052 10.1743C8.84878 9.42278 9.45438 8.80967 10.2012 8.42217C10.948 8.03467 11.7979 7.89251 12.6302 8.01593C13.4791 8.14181 14.265 8.53739 14.8719 9.14423C15.4787 9.75108 15.8743 10.537 16.0002 11.3859Z" stroke="#02897A" stroke-width="2" stroke-linecap="round" stroke-linejoin="round" />
  <path d="M17.5 6.51562H17.51" stroke="#02897A" stroke-width="2" stroke-linecap="round" stroke-linejoin="round" />
</svg>